<svg class="svg-icon" style="width: 1em; height: 1em;vertical-align: middle;fill: currentColor;overflow: hidden;" viewBox="0 0 1024 1024" version="1.1" xmlns="http://www.w3.org/2000/svg"><path d="M528.64 510.15m-389.4 0a389.4 389.4 0 1 0 778.8 0 389.4 389.4 0 1 0-778.8 0Z" fill="#EFD0D0" /><path d="M513 929.15a419.11 419.11 0 0 1-364.92-625 8.29 8.29 0 1 1 14.43 8.17 402.49 402.49 0 0 0-51.93 197.87C110.59 732 291.11 912.56 513 912.56a400.1 400.1 0 0 0 153.34-30.24 8.29 8.29 0 1 1 6.32 15.33A416.61 416.61 0 0 1 513 929.15zM808 804.19a8.29 8.29 0 0 1-6-14.06 400.34 400.34 0 0 0 113.36-280c0-221.89-180.52-402.41-402.41-402.41a404.06 404.06 0 0 0-98.05 12 8.29 8.29 0 0 1-4-16.09A420.69 420.69 0 0 1 513 91.16a419 419 0 0 1 301 710.5 8.26 8.26 0 0 1-6 2.53z" fill="#050505" /><path d="M679.21 752.62s19 0 33.21 4.71c8.42 2.82 14.76 29 21.1 43.58 4.28 9.82 37.24 41.24 21.12 49-17.16 8.26-25 9.22-33.64 5.07-10.51-5-23-38.78-28.93-51.91-2.54-5.6-42.35 0.18-42.35 0.18l-14.38-33.8z" fill="#F9F7F8" /><path d="M730.89 863.22a27.89 27.89 0 0 1-12.41-3c-9.81-4.7-18.48-23.67-28-46.12-1.16-2.73-2.19-5.17-3.09-7.21-5.09-1.21-22.53 0-36.86 2.1a5.81 5.81 0 0 1-6.18-3.47L630 771.72a5.81 5.81 0 0 1 3.26-7.7l43.87-16.82a5.76 5.76 0 0 1 1.28-0.33c7.51-1 45.47-5.48 55.26 9.29 5.34 8.06 7.76 16.83 10.09 25.32a111.93 111.93 0 0 0 5.14 15.67c0.71 1.59 2.12 4.16 3.76 7.13 8.64 15.65 16.11 30.61 12.59 41.64a15.17 15.17 0 0 1-8.1 9.22c-11.41 5.49-19.36 8.08-26.26 8.08z m-50.51-68.42c10.38 0 15.12 1.78 17 5.86 1.1 2.42 2.37 5.42 3.84 8.9 5.08 12 15.66 37 22.31 40.17 6.27 3 11.88 3 28.62-5.07a3.55 3.55 0 0 0 2.07-2.29c2.29-7.18-6.8-23.64-11.69-32.49-1.85-3.34-3.3-6-4.22-8a122.23 122.23 0 0 1-5.71-17.29c-2.19-8-4.26-15.47-8.58-22-4-6.07-27.51-6.39-43.34-4.29L643 772.71l10.3 24.2c3.92-0.5 10-1.19 16.19-1.64 4.2-0.27 7.79-0.47 10.89-0.47z" fill="" /><path d="M429.24 183.06c33.55-2.16 67.48 6.51 97.74 21.66a180.86 180.86 0 0 1 33.39 21.1c12.65 10.3 22.71 23.86 34.95 34.8 6.24 5.58 15.28 6.87 22.87 9 5.65 1.6 11.42 4.11 15 9.07 10.43 14.66-0.28 38.51 10.52 53.55 6.51 9.07 64 96.16 64 155.17s5.68 100.25 4.68 140.78 0.12 49.06 0.12 49.06-29.85 55.1-27.85 87.45 8.69 36.62 8.69 36.62-23.05 51.9-41.09 51.9-42.09-77.32-63.64-88.52c-10-5.2-66.14 1.87-66.14 1.87s-2 18.93-4 18.4c-31.17-8-65.14-4.75-96-13.58-2.18-36.37-6.79-69.11-20.69-103-17.9-43.61-42.88-86.38-68.24-125.52-37.99-58.49-81-122.42-74.55-197.13 8.39-98.01 82.43-157.02 170.24-162.68z" fill="#F9DB2F" /><path d="M647.56 859c-12.8 0-23.23-17.38-39.17-45.74-10.47-18.62-22.33-39.72-31.89-44.39-5.4-2.64-36.21-1.09-63.45 1.92-2.08 15.42-4.33 17-5.86 18a6.25 6.25 0 0 1-5.08 0.95c-15.66-3.78-32.57-5-48.91-6.25-18.08-1.35-36.77-2.74-54.49-7.51a5.81 5.81 0 0 1-4.29-5.24c-2-31.82-6.08-66.23-21.8-102.23-16.47-37.71-39.64-77.75-72.92-126l-3.34-4.84c-39.74-57.56-84.79-122.8-77.87-198.42 4.46-48.72 25.76-90.63 61.62-121.21 33.32-28.41 78.47-45.68 127.12-48.63 35-2.12 72.33 5.65 108 22.46a201.08 201.08 0 0 1 37 22c7.79 6 14.69 12.95 21.36 19.7 5.28 5.34 10.73 10.86 16.46 15.68 4.33 3.64 10.89 5.19 17.23 6.69 1.7 0.4 3.45 0.82 5.14 1.27 5.75 1.53 14 4.37 19.23 11.28 6.75 8.91 6.72 19.74 6.69 30.21 0 9.17 0 17.84 4.62 23.94 0.7 0.92 70.06 95.67 70.06 160.5 0 29.78 1.55 55.46 2.93 78.12 1.42 23.48 2.65 43.77 2.11 64.44-1 39.31 0 48.35 0.08 48.71a5.91 5.91 0 0 1-0.73 3.66c-0.31 0.54-31.23 54.61-29.21 85.19 1.69 25.68 6.53 32.14 7.11 32.83a5.81 5.81 0 0 1 1.69 7.07 247.16 247.16 0 0 1-15.23 27C669 849.6 657.83 859 647.56 859z m-86.94-103c9.35 0 17.2 0.66 21 2.51 12.81 6.26 24.52 27.08 36.92 49.14 6.16 11 12 21.31 17.53 29 7.4 10.28 10.89 10.8 11.52 10.8 10.16 0 27.61-26.28 37.39-45.91-3.16-5.08-6.86-15.62-8.3-37.45-2.06-31.28 24.4-80.43 29.82-90.13-0.32-4.47-0.81-17.08 0-48.5 0.53-20.17-0.68-40.22-2.09-63.43-1.38-22.82-2.95-48.69-2.95-78.82 0-61.14-67-152.56-67.67-153.45-7.07-9.24-7-20.81-7-31 0-8.94 0-17.38-4.34-23.17-2.34-3.09-6.46-5.33-13-7.07-1.53-0.41-3.13-0.79-4.83-1.19-7.3-1.73-15.58-3.69-22-9.1-6.14-5.16-11.79-10.88-17.25-16.4-6.69-6.77-13-13.16-20.16-18.64a189.68 189.68 0 0 0-34.89-20.7c-34-16-69.37-23.38-102.39-21.37-98.22 6-169.7 70-177.87 159.3-6.53 71.43 35.36 132.09 75.86 190.76l3.35 4.85c33.71 48.88 57.23 89.54 74 127.95 15.74 36 20.27 70.21 22.47 101.91 15.54 3.69 32.19 4.93 48.33 6.13 15.22 1.13 30.9 2.3 46.07 5.49 0.7-3.31 1.46-8.3 1.93-12.54a5.81 5.81 0 0 1 5.09-5.12c9.75-1.19 34.62-3.85 53.46-3.85z m134.19 39.8z m0 0z m-190-17.23h0.09z" fill="" /><path d="M533.2 375.44a80.02 71.05 0 1 0 160.04 0 80.02 71.05 0 1 0-160.04 0Z" fill="#FCFAFB" /><path d="M613.22 452.31c-47.32 0-85.82-34.48-85.82-76.86s38.5-76.86 85.82-76.86S699 333.06 699 375.44s-38.46 76.87-85.78 76.87z m0-142.11c-40.92 0-74.21 29.27-74.21 65.25s33.29 65.25 74.21 65.25 74.21-29.27 74.21-65.25-33.29-65.25-74.21-65.25z" fill="" /><path d="M656.55 350.84m-12.95 0a12.95 12.95 0 1 0 25.9 0 12.95 12.95 0 1 0-25.9 0Z" fill="" /><path d="M614.54 452.83c48.45-20.77 123.65 1.94 151.26 47 12.08 19.7 15.84 43.71 13.87 66.74-5.61 65.5-49.18 140.42-113.08 163.92-72.87 26.81-193.4 10.07-217.54-76.83-16.18-58.26 24.81-110 59.34-128.39s58.26-49.63 58.26-49.63 34.99-17.28 47.89-22.81z" fill="#EFD0D0" /><path d="M601.64 452.72c44.75-20.47 114.22 1.91 139.73 46.32 11.16 19.42 14.64 43.1 12.81 65.8-5.18 64.58-45.43 138.43-104.46 161.6-67.32 26.43-178.65 9.93-201-75.75-14.95-57.44 22.92-108.49 54.81-126.57s53.87-48.92 53.87-48.92 32.33-17.03 44.24-22.48z" fill="#D3AD78" /><path d="M596.35 748q-4.35 0-8.7-0.16c-30.46-1.15-59-8.11-82.46-20.15-31.75-16.27-53.1-41.33-61.75-72.46-9.72-35 0.71-64.75 11.18-83.54 12.09-21.71 31.17-41 51-51.53 32.93-17.49 56.13-47.71 56.36-48l0.83-1.09 1.23-0.61c1.43-0.71 35.28-17.4 48.17-22.93 24.43-10.47 56.3-11 87.44-1.4 31.32 9.64 57.22 28.11 71.06 50.69 15 24.52 16.29 51.75 14.71 70.27-2.93 34.19-15.58 69.85-35.61 100.4-21.82 33.27-49.92 57-81.25 68.48-21.29 7.8-46.65 12.03-72.21 12.03z m-25.94-267.75c-4.69 5.91-27.33 33.15-59.29 50.13-32.66 17.35-71.78 66.58-56.47 121.7 7.76 27.92 27.07 50.48 55.85 65.23 43.05 22.07 106.42 25.24 154.09 7.7 64.17-23.6 104.21-99.52 109.3-159 1.44-16.79 0.34-41.38-13-63.21-12.38-20.2-35.92-36.84-64.58-45.65s-57.51-8.43-79.45 1c-11.31 4.85-40.23 19.04-46.45 22.1z" fill="" /><path d="M743 515s8.63-28.59 34.52-29.13 43.15 27 42.08 54.48-15.02 57.73-38.23 56.65-32-28.05-32-28.05" fill="#D3AD78" /><path d="M782.54 602.84h-1.45c-26.92-1.25-36.85-30.8-37.26-32.05a5.81 5.81 0 1 1 11-3.6c0.07 0.22 7.9 23.17 26.75 24 5.48 0.26 10.59-1.76 15.2-6 9.6-8.81 16.28-26.5 17-45.07 0.58-14.71-4.71-29.6-13.8-38.86-4.41-4.5-11.85-9.81-22.35-9.59-21.43 0.45-29 24.76-29.08 25a5.81 5.81 0 1 1-11.12-3.36c0.4-1.33 10.19-32.64 40-33.26 11.57-0.23 22.25 4.28 30.88 13.07 11.43 11.64 17.83 29.38 17.12 47.45-0.86 21.83-8.81 42.21-20.76 53.17-6.47 5.98-14.1 9.1-22.13 9.1z" fill="" /><path d="M765.16 539.55a11.33 22.93 0 1 0 22.66 0 11.33 22.93 0 1 0-22.66 0Z" fill="" /><path d="M527.45 447.22c15.43-7.33 30.62-15.06 44.52-25 15.7-11.17 33.28-24.67 52.59-28.54 10.59-2.12 22.61-0.21 30.11 7.57 17.09 17.72 7.09 48.13-7.86 63.49-11.1 11.41-25.86 18.64-41 23.57-38.11 12.42-73.43 19.38-109.69 44.66" fill="#F9DB2F" /><path d="M496.13 538.29a5.28 5.28 0 0 1-3-9.61c29.57-20.62 58.06-29.2 88.22-38.28 7.45-2.24 15.15-4.56 22.86-7.07 16.95-5.52 29.65-12.79 38.84-22.23 12.72-13.07 22.84-40.58 7.84-56.14-6.63-6.87-17.4-7.63-25.27-6.06-16.62 3.34-32.62 14.78-46.67 24.87l-3.92 2.8c-14.47 10.3-30.33 18.3-45.32 25.42a5.28 5.28 0 0 1-4.53-9.54c14.55-6.91 29.92-14.66 43.73-24.48l3.89-2.78c14.94-10.71 31.88-22.86 50.73-26.64 13.54-2.71 26.93 0.76 34.95 9.08 19.83 20.57 8.17 54.35-7.87 70.83-10.41 10.7-24.52 18.84-43.14 24.91-7.82 2.55-15.58 4.88-23.08 7.14-29.33 8.83-57 17.18-85.23 36.83a5.26 5.26 0 0 1-3.03 0.95z" fill="" /><path d="M378.92 410.51a87.93 82.38 0 1 0 175.86 0 87.93 82.38 0 1 0-175.86 0Z" fill="#FCFAFB" /><path d="M466.85 498.7c-51.69 0-93.74-39.56-93.74-88.19s42-88.19 93.74-88.19 93.74 39.56 93.74 88.19-42.05 88.19-93.74 88.19z m0-164.77c-45.28 0-82.12 34.35-82.12 76.58s36.84 76.57 82.12 76.57S549 452.73 549 410.51s-36.87-76.58-82.15-76.58z" fill="" /><path d="M463.88 390.85m-13.76 0a13.76 13.76 0 1 0 27.52 0 13.76 13.76 0 1 0-27.52 0Z" fill="" /><path d="M383.6 577.4c-12.76-14.17-34.7-16.18-50.4-5.71-18.69 12.45-20.3 37.42-7.38 54.87a41.54 41.54 0 0 0 4 4.61c17 17 60.18 22.15 65-9.17" fill="#F9DB2F" /><path d="M365.24 650c-14.19 0-29.8-5.66-39.2-15.09a47.58 47.58 0 0 1-13.27-40.8 40.23 40.23 0 0 1 17.5-26.8c18.29-12.19 42.91-9.36 57.26 6.57a5.28 5.28 0 0 1-7.85 7.07c-10.69-11.87-29.82-14-43.55-4.85a29.38 29.38 0 0 0-12.95 19.83 37 37 0 0 0 10.34 31.53c9.89 9.91 29.15 14.72 42.06 10.49 8-2.6 12.65-8.23 14-16.74a5.28 5.28 0 0 1 10.44 1.6c-1.9 12.4-9.39 21.34-21.11 25.18a44 44 0 0 1-13.67 2.01z" fill="" /><path d="M372.44 614a5.28 5.28 0 0 1-5.2-4.39c-0.76-4.45-2.41-7.26-5-8.6-5.11-2.62-13.45 0.31-16.23 1.66a5.28 5.28 0 0 1-4.65-9.48c1.5-0.74 15-7.06 25.66-1.6 3.93 2 9 6.44 10.65 16.23a5.28 5.28 0 0 1-4.31 6.1 5.35 5.35 0 0 1-0.92 0.08zM283.63 279.69a5.8 5.8 0 0 1-4.93-2.69c-14.29-22.86-28.23-56.9-13.47-89.22a73.17 73.17 0 0 1 52.06-41.14c26.14-5.26 56.46 2.58 77.23 20a5.81 5.81 0 1 1-7.46 8.91c-17.9-15-45-22-67.49-17.5a61.52 61.52 0 0 0-43.78 34.58c-12.61 27.62 0 57.79 12.76 78.24a5.81 5.81 0 0 1-4.92 8.89z" fill="" /><path d="M248.37 330a5.79 5.79 0 0 1-2.72-0.68 86.06 86.06 0 0 1-43.42-56.75c-4.56-20.78-0.17-41.3 12.38-57.78 11-14.42 26.73-23.56 45.54-26.41 16.73-2.54 35.1 0.13 51.71 7.52a5.81 5.81 0 1 1-4.72 10.61c-26.63-11.84-62.71-11.7-83.29 15.32-10.45 13.72-14.1 30.85-10.28 48.25a74.31 74.31 0 0 0 37.51 49 5.81 5.81 0 0 1-2.71 10.92zM289.92 594.72a5.81 5.81 0 0 1-5.45-3.8c-0.06-0.15-5.64-15.29-10.35-30.58a224.29 224.29 0 0 1-5.83-22c-1-5.11-2.84-14.63 3.75-17.38 5.19-2.17 13.67 1 33.22 9.39 4.6 2 10.75 4.6 15.12 6.19-0.85-4.94-2.54-12.33-4-18.67-8-34.88-10.75-51.88-1.89-57 4.72-2.73 12.51-3.55 45.34 21.37 16.22 12.32 31.38 25.54 31.53 25.67a5.81 5.81 0 1 1-7.64 8.75c-0.13-0.12-13.69-11.94-28.73-23.5-22.45-17.26-31.27-21-34.27-21.73-1.38 7.22 4.2 31.67 7 43.85 1.62 7.1 3.15 13.81 4 18.82 1 5.51 2.14 12.36-3.32 14.78-4.14 1.84-9.27 0-27.73-7.86-6.39-2.74-16.18-6.92-21.66-8.5 1.23 9.65 8.8 33.94 16.34 54.35a5.81 5.81 0 0 1-5.45 7.82z" fill="" /><path d="M471.81 752.79q-10.76 0.27-21.5 1c-26.89 1.82-56.39 3.92-72.92 25.86-8 10.66-17 25.94-13.87 39.43 3.12 13.29 41.34 17.7 52.17 19.83 25.89 5.08 52.49 8.88 78.93 10.21 22.53 1.14 27.35-9.43 35.76-26.75a159.39 159.39 0 0 1 21-31.85c11.85-14 25.72-24.19 25.59-25.57-0.31-3.36-4.72-4.79-8.32-5.39a510.38 510.38 0 0 0-96.84-6.77z" fill="#F9F7F8" /><path d="M490.37 872.77c-1.2 0-2.44 0-3.73-0.11-27-1.48-55.46-5.47-87.16-12.21-1.51-0.32-3.63-0.71-6.09-1.15-25-4.53-51.91-10.72-55.39-26.77-3.08-14.23 2.32-31.47 16.07-51.23 19.74-28.37 53.9-30.88 84-33.09 7.88-0.58 15.87-1 23.76-1.2a522.27 522.27 0 0 1 107.07 8.12c11.36 2.05 13.55 8.15 13.84 11.6s-1.38 5.06-7.74 11.27a230.7 230.7 0 0 0-21.39 23.09 184.74 184.74 0 0 0-22.25 36.5l-0.36 0.81c-8.58 19.09-15.42 34.37-40.63 34.37z m-28.18-114.15c-7.71 0.21-15.53 0.6-23.23 1.17-28.9 2.12-58.78 4.31-75.35 28.14-11.66 16.77-16.59 31.34-14.25 42.14 0.37 1.7 2.72 6.15 16.62 10.88 9.89 3.37 21.69 5.51 29.49 6.92 2.55 0.46 4.75 0.86 6.43 1.22 31.1 6.61 59 10.53 85.38 12 20.31 1.11 24.32-7.83 33.1-27.42l0.37-0.82a196.78 196.78 0 0 1 23.71-38.91 240.78 240.78 0 0 1 22.44-24.26l2.52-2.46a18.13 18.13 0 0 0-2.53-0.63 510.58 510.58 0 0 0-104.68-7.94z m-0.16-5.81zM689.68 810.78a5.81 5.81 0 0 1-5.1-8.57c4.29-7.93 13.13-39.56 16.17-51.07a5.81 5.81 0 0 1 11.23 3c-1.16 4.37-11.45 43-17.18 53.63a5.81 5.81 0 0 1-5.12 3.01z" fill="#020202" /></svg>